<svg width="100" viewBox="0 0 800 410" fill="none" xmlns="http://www.w3.org/2000/svg">
<path d="M158 363.45H180.38L235.959 227.708L235.718 227.204H208.771V207.019H266.756L328.59 363.45L334 363.5V373.5L350.966 373.542V383.634H276.62V363.45H306.936C306.936 363.45 300.5 327 292.259 326.613C284.019 326.226 226.534 326.726 215.267 326.613C204 326.5 200.109 363.45 200.109 363.45H231.628V383.634H158.485L158 363.45Z" fill="#FF5F5D"/>
<path d="M74.8779 204.581V70.7707H27.2387C27.0783 70.7707 26.9981 70.8546 26.9981 71.023C26.9981 71.023 26.9179 71.023 26.7575 71.023C26.7575 71.023 26.7575 71.1069 26.7575 71.2753V111.645H7.75V35.7H26.7575V50.5861H143.209V35.7H162.216V111.645H143.209V71.2753C143.209 71.1069 143.129 71.023 142.968 71.023C142.968 70.8546 142.888 70.7707 142.728 70.7707H94.8478V204H90.5L85.5 203.5L80 204L74.8779 204.581ZM174.836 207.017H200.34V70.7707H220.31V207.017H259.658V227.202H174.836V207.017ZM326.305 50.5861C344.59 50.5861 360.711 54.2866 374.666 61.6876C388.62 69.0885 399.448 79.5176 407.147 92.9738C414.846 106.262 418.696 121.568 418.696 138.894C418.696 156.219 414.846 171.61 407.147 185.066C399.448 198.355 388.62 208.699 374.666 216.1C360.711 223.501 355.786 227.202 337.5 227.202H259.658V207.017H285.162V70.7707H259.658V50.5861H326.305ZM327.508 207.017C341.783 207.017 354.214 204.241 364.801 198.691C375.547 193.14 383.808 185.235 389.583 174.974C395.517 164.545 398.485 152.518 398.485 138.894C398.485 125.269 395.517 113.327 389.583 103.066C383.808 92.6376 375.547 84.6476 364.801 79.0969C354.214 73.5461 341.783 70.7707 327.508 70.7707H305.132V207.017H327.508ZM642.059 83.3861V207.017H672.134V227.202H597.066V207.017H622.57V71.2753L621.848 70.7707H596.104V50.5861H644.465L740.705 195.915V70.7707H711.593V50.5861H784.495V70.7707H760.194V231.743H740.224L642.059 83.3861Z" fill="white"/>
<path d="M87.8081 387.167C73.212 387.167 59.8985 383.214 47.8684 375.308C35.8384 367.402 26.3747 356.469 19.4775 342.508C12.5802 328.547 9.13159 312.82 9.13159 295.327C9.13159 277.833 12.5802 262.106 19.4775 248.145C26.3747 234.184 35.7581 223.251 47.6278 215.345C59.6579 207.439 72.9714 203.487 87.5675 203.487C96.7104 203.487 105.533 205.337 114.034 209.037C122.695 213.074 129.673 218.373 134.966 224.933V198.693H154.214V273.124H134.244V261.013C134.244 254.453 132.079 248.313 127.748 242.594C123.578 236.707 117.964 232.081 110.906 228.717C103.848 225.185 96.1492 223.419 87.8081 223.419C76.7404 223.419 66.7158 226.531 57.7331 232.754C48.911 238.978 41.9336 247.556 36.8008 258.49C31.8283 269.423 29.3421 281.702 29.3421 295.327C29.3421 308.951 31.8283 321.23 36.8008 332.164C41.9336 343.097 48.9912 351.675 57.9737 357.899C66.9564 364.122 76.981 367.234 88.0487 367.234C96.871 367.234 105.051 365.468 112.59 361.936C120.129 358.235 126.144 353.357 130.635 347.302C135.127 341.247 137.372 334.687 137.372 327.622V314.25H157.101L158.5 383.5H138L137.853 364.711C132.4 371.608 125.101 377.158 115.958 381.364C106.976 385.232 97.5928 387.167 87.8081 387.167ZM409.62 207.019C427.906 207.019 444.026 210.719 457.981 218.121C471.936 225.521 482.763 235.95 490.463 249.407C498.162 262.695 502.011 278.001 502.011 295.327C502.011 312.651 490.037 324.001 486 339.5C478.301 352.788 471.936 365.131 457.981 372.533C444.026 379.934 427.906 383.634 409.62 383.634H350.95L350.975 373.567H334V363.45H368.478V227.204H342.974V207.019H409.62ZM410.823 363.45C425.099 363.45 460.5 363.45 460.5 363.45L473 331.5C473 331.5 481.801 308.951 481.801 295.327C481.801 281.702 478.833 269.759 472.899 259.499C467.124 249.07 458.863 241.081 448.117 235.53C437.53 229.979 425.099 227.204 410.823 227.204H388.447V363.45H410.823Z" fill="white"/>
<path d="M409.5 207L441.47 206.892L497.049 71.1508L496.808 70.6461H469.861V50.4615C469.861 50.4615 519.192 43.4229 527.846 50.4615C536.5 57.5001 589.681 206.892 589.681 206.892H612.054V227.077H537.711V206.892H568.026L553.35 170.055H476.357L461.199 206.892L492.718 207.044V227.216L471.5 227C471.5 227 445.5 207.456 409.5 207ZM546.132 150.88C556.5 139 516.057 75.1877 516.057 75.1877H514.613C514.613 75.1877 476.357 140 483.816 150.88C491.275 161.76 535.763 162.76 546.132 150.88Z" fill="#FF5F5D"/>
<path d="M460.102 363.45L515.681 227.708L515.441 227.204H488.493V207.019H546.478L608.313 363.45H630.689V383.634H556.343V363.45H586.659C586.659 363.45 582 327 571.982 326.613C561.964 326.226 501.479 326.226 494.989 326.613C488.5 327 479.832 363.45 479.832 363.45H511.35V383.634L452.5 384L460.102 363.45ZM564.764 307.438L534.689 231.745H533.245L502.448 307.438H564.764Z" fill="#FF5F5D"/>
<path d="M622.695 363.45H648.199V227.204H622.695V207.019H709.793C726.797 207.019 740.193 211.056 749.973 219.13C759.759 227.204 764.65 238.305 764.65 252.434C764.65 262.19 762.087 270.684 756.95 277.918C751.982 285.15 744.842 290.364 735.537 293.561V295.327C747.248 298.018 756.15 303.064 762.244 310.465C768.499 317.698 771.627 326.949 771.627 338.219C771.627 352.348 766.737 363.45 756.95 371.524C747.17 379.598 733.696 383.634 716.529 383.634H622.695V363.45ZM713.642 363.45C725.035 363.45 733.937 360.927 740.349 355.881C746.767 350.666 749.973 343.601 749.973 334.687C749.973 325.604 746.605 318.455 739.868 313.241C733.131 307.858 724.391 305.167 713.642 305.167H668.168V363.45H713.642Z" fill="white"/>
<path d="M554.366 168H474.634L459 210H570L554.366 168Z" fill="#FF5F5D"/>
<path d="M249 338.5C249 338.5 245 326 242 326H266C263.5 326 258.5 338.5 258.5 338.5H249Z" fill="#FF5F5D" stroke="#FF5F5D"/>
<path d="M528.215 338.5C528.215 338.5 524.214 326 521.215 326H545.214C542.714 326 537.714 338.5 537.714 338.5H528.215Z" fill="#FF5F5D" stroke="#FF5F5D"/>
<path d="M286 70.5L244.5 207H286V70.5Z" fill="white"/>
<path d="M200 30.9999C194.818 36.5803 194.818 44.9195 200 50.4999C205.58 56.5096 215.42 56.5096 221 50.4999C226.182 44.9195 226.182 36.5803 221 30.9999C215.42 24.9903 205.58 24.9903 200 30.9999Z" fill="white" stroke="white"/>
<path d="M397.5 383.5V227H417.5V363H460.5L452.5 384L397.5 383.5Z" fill="red"/>
<path d="M13 409V383H136H231.625L231.5 392.5L276.646 392.283V383H511.446V392.5L556.277 392.384V383H786V409H13Z" fill="white"/>
</svg>
