<svg width="133" height="65" viewBox="0 0 133 65" fill="none" xmlns="http://www.w3.org/2000/svg">
<path d="M14.5981 61.3801C12.1715 61.3801 9.95813 60.7534 7.95813 59.5001C5.95813 58.2467 4.38479 56.5134 3.23813 54.3001C2.09146 52.0867 1.51813 49.5934 1.51813 46.8201C1.51813 44.0467 2.09146 41.5534 3.23813 39.3401C4.38479 37.1267 5.94479 35.3934 7.91813 34.1401C9.91813 32.8867 12.1315 32.2601 14.5581 32.2601C16.0781 32.2601 17.5448 32.5534 18.9581 33.1401C20.3981 33.7801 21.5581 34.6201 22.4381 35.6601V31.5001H25.6381V43.3001H22.3181V41.3801C22.3181 40.3401 21.9581 39.3667 21.2381 38.4601C20.5448 37.5267 19.6115 36.7934 18.4381 36.2601C17.2648 35.7001 15.9848 35.4201 14.5981 35.4201C12.7581 35.4201 11.0915 35.9134 9.59813 36.9001C8.13146 37.8867 6.97146 39.2467 6.11813 40.9801C5.29146 42.7134 4.87813 44.6601 4.87813 46.8201C4.87813 48.9801 5.29146 50.9267 6.11813 52.6601C6.97146 54.3934 8.14479 55.7534 9.63813 56.7401C11.1315 57.7267 12.7981 58.2201 14.6381 58.2201C16.1048 58.2201 17.4648 57.9401 18.7181 57.3801C19.9715 56.7934 20.9715 56.0201 21.7181 55.0601C22.4648 54.1001 22.8381 53.0601 22.8381 51.9401V49.8201H26.1181V61.1401H22.9181V57.8201C22.0115 58.9134 20.7981 59.7934 19.2781 60.4601C17.7848 61.0734 16.2248 61.3801 14.5981 61.3801ZM68.0994 32.8201C71.1394 32.8201 73.8194 33.4067 76.1394 34.5801C78.4594 35.7534 80.2594 37.4067 81.5394 39.5401C82.8194 41.6467 83.4594 44.0734 83.4594 46.8201C83.4594 49.5667 82.8194 52.0067 81.5394 54.1401C80.2594 56.2467 78.4594 57.8867 76.1394 59.0601C73.8194 60.2334 71.1394 60.8201 68.0994 60.8201H57.0194V57.6201H61.2594V36.0201H57.0194V32.8201H68.0994ZM68.2994 57.6201C70.6727 57.6201 72.7394 57.1801 74.4994 56.3001C76.286 55.4201 77.6594 54.1667 78.6194 52.5401C79.606 50.8867 80.0994 48.9801 80.0994 46.8201C80.0994 44.6601 79.606 42.7667 78.6194 41.1401C77.6594 39.4867 76.286 38.2201 74.4994 37.3401C72.7394 36.4601 70.6727 36.0201 68.2994 36.0201H64.5794V57.6201H68.2994Z" fill="white"/>
<path d="M26.3481 57.6201H29.9881L39.2281 36.1001L39.1881 36.0201H34.7081V32.8201H44.3481L54.6281 57.6201H58.3481V60.8201H45.9881V57.6201H51.0281L48.5881 51.7801H35.7881L33.2681 57.6201H38.5081V60.8201H26.3481V57.6201ZM47.3881 48.7401L42.3881 36.7401H42.1481L37.0281 48.7401H47.3881Z" fill="#FF5F5D"/>
<path d="M7.85219 32.8H13.6122V11.2H5.69219C5.66552 11.2 5.65219 11.2133 5.65219 11.24C5.65219 11.24 5.63885 11.24 5.61219 11.24C5.61219 11.24 5.61219 11.2533 5.61219 11.28V17.68H2.45219V5.64H5.61219V8H24.9722V5.64H28.1322V17.68H24.9722V11.28C24.9722 11.2533 24.9589 11.24 24.9322 11.24C24.9322 11.2133 24.9189 11.2 24.8922 11.2H16.9322V32.8H22.6922V36H7.85219V32.8ZM30.2303 32.8H34.4703V11.2H30.2303V8H42.0303V11.2H37.7903V32.8H42.0303V36H30.2303V32.8ZM55.4119 8C58.4519 8 61.1319 8.58667 63.4519 9.76C65.7719 10.9333 67.5719 12.5867 68.8519 14.72C70.1319 16.8267 70.7719 19.2533 70.7719 22C70.7719 24.7467 70.1319 27.1867 68.8519 29.32C67.5719 31.4267 65.7719 33.0667 63.4519 34.24C61.1319 35.4133 58.4519 36 55.4119 36H44.3319V32.8H48.5719V11.2H44.3319V8H55.4119ZM55.6119 32.8C57.9852 32.8 60.0519 32.36 61.8119 31.48C63.5985 30.6 64.9719 29.3467 65.9319 27.72C66.9185 26.0667 67.4119 24.16 67.4119 22C67.4119 19.84 66.9185 17.9467 65.9319 16.32C64.9719 14.6667 63.5985 13.4 61.8119 12.52C60.0519 11.64 57.9852 11.2 55.6119 11.2H51.8919V32.8H55.6119ZM107.906 13.2V32.8H112.906V36H100.426V32.8H104.666V11.28L104.546 11.2H100.266V8H108.306L124.306 31.04V11.2H119.466V8H131.586V11.2H127.546V36.72H124.226L107.906 13.2Z" fill="white"/>
<path d="M69.7544 32.8H73.3944L82.6344 11.28L82.5944 11.2H78.1144V8H87.7544L98.0344 32.8H101.754V36H89.3944V32.8H94.4344L91.9944 26.96H79.1944L76.6744 32.8H81.9144V36H69.7544V32.8ZM90.7944 23.92L85.7944 11.92H85.5544L80.4344 23.92H90.7944Z" fill="#FF5F5D"/>
<path d="M72.852 57.6201H76.492L85.732 36.1001L85.692 36.0201H81.212V32.8201H90.852L101.132 57.6201H104.852V60.8201H92.492V57.6201H97.532L95.092 51.7801H82.292L79.772 57.6201H85.012V60.8201H72.852V57.6201ZM93.892 48.7401L88.892 36.7401H88.652L83.532 48.7401H93.892Z" fill="#FF5F5D"/>
<path d="M103.523 57.6201H107.763V36.0201H103.523V32.8201H118.003C120.83 32.8201 123.057 33.4601 124.683 34.7401C126.31 36.0201 127.123 37.7801 127.123 40.0201C127.123 41.5667 126.697 42.9134 125.843 44.0601C125.017 45.2067 123.83 46.0334 122.283 46.5401V46.8201C124.23 47.2467 125.71 48.0467 126.723 49.2201C127.763 50.3667 128.283 51.8334 128.283 53.6201C128.283 55.8601 127.47 57.6201 125.843 58.9001C124.217 60.1801 121.977 60.8201 119.123 60.8201H103.523V57.6201ZM118.643 57.6201C120.537 57.6201 122.017 57.2201 123.083 56.4201C124.15 55.5934 124.683 54.4734 124.683 53.0601C124.683 51.6201 124.123 50.4867 123.003 49.6601C121.883 48.8067 120.43 48.3801 118.643 48.3801H111.083V57.6201H118.643ZM117.523 45.3401C119.417 45.3401 120.897 44.9134 121.963 44.0601C123.03 43.2067 123.563 42.0601 123.563 40.6201C123.563 39.1801 123.03 38.0601 121.963 37.2601C120.897 36.4334 119.417 36.0201 117.523 36.0201H111.083V45.3401H117.523Z" fill="white"/>
</svg>
